<svg version="1.1" id="Layer_1" xmlns="http://www.w3.org/2000/svg" xmlns:xlink="http://www.w3.org/1999/xlink" x="0px" y="0px"
	 width="100%" viewBox="0 0 500 500" enable-background="new 0 0 500 500" xml:space="preserve">
<path fill="#000000" opacity="1.000000" stroke="none" 
	d="
M283.000000,501.000000 
	C188.666687,501.000000 94.833382,501.000000 1.000050,501.000000 
	C1.000034,334.333405 1.000034,167.666794 1.000017,1.000140 
	C167.666565,1.000093 334.333130,1.000093 500.999756,1.000047 
	C500.999847,167.666519 500.999847,334.333038 500.999939,500.999786 
	C428.500000,501.000000 356.000000,501.000000 283.000000,501.000000 
M331.228058,250.659058 
	C331.113281,251.102539 330.998505,251.546021 330.254395,252.280548 
	C329.934174,253.136566 329.613983,253.992584 329.116760,255.321777 
	C330.616455,254.664749 331.438293,254.304703 332.197144,254.886826 
	C332.145172,282.200531 332.198242,309.515137 331.968475,336.827332 
	C331.909912,343.790802 332.075043,351.335968 323.089325,353.743835 
	C332.293945,353.743835 341.498566,353.743835 350.703186,353.743835 
	C342.756775,351.847595 342.224884,345.407745 342.071777,339.305481 
	C341.708374,324.823730 341.737671,310.330505 341.733704,295.841888 
	C341.730469,284.184845 341.710419,272.521179 342.092438,260.873383 
	C342.291473,254.803299 343.271790,248.714005 351.202179,247.216400 
	C345.393188,246.809753 339.772888,246.647339 334.181793,246.978241 
	C333.304901,247.030136 332.560638,249.321838 331.768250,250.739059 
	C331.768250,250.739059 331.920532,250.793457 331.228058,250.659058 
M251.871094,289.802979 
	C251.940613,291.210327 252.010132,292.617706 251.882751,294.800812 
	C251.651779,310.082123 251.502014,325.365265 251.149475,340.643799 
	C251.010178,346.680725 249.573196,352.132629 242.419037,353.683777 
	C251.792908,353.683777 261.166779,353.683777 271.609558,353.683777 
	C261.928558,350.673737 258.799530,347.917664 256.271240,340.010590 
	C255.167068,336.557343 254.196167,332.930267 254.011047,329.338501 
	C253.404633,317.571838 253.186783,305.785126 252.983704,293.181366 
	C252.931580,291.785583 252.879456,290.389801 252.976654,288.088776 
	C252.928650,284.725403 252.880646,281.362030 252.986145,277.072815 
	C252.986145,270.248291 252.986145,263.423798 252.986145,256.599274 
	C253.287659,256.572083 253.589172,256.544861 253.890686,256.517670 
	C267.860046,286.456787 281.829376,316.395874 296.274017,347.353577 
	C298.074554,342.676971 299.478882,339.315521 300.622284,335.867554 
	C300.924957,334.954834 300.687988,333.650513 300.254303,332.737091 
	C287.157257,305.153809 274.016937,277.591095 260.819641,250.055679 
	C260.232819,248.831238 259.098969,247.022461 258.134125,246.966568 
	C252.875717,246.661911 247.590378,246.821640 242.314316,246.821640 
	C248.435455,249.343002 250.419006,251.516754 250.979874,258.095490 
	C251.544571,264.719177 251.720200,271.376038 251.866348,278.766327 
	C251.934540,282.170013 252.002747,285.573669 251.871094,289.802979 
M232.950363,207.500000 
	C233.210571,196.694199 233.363205,185.884293 233.775497,175.084290 
	C233.987900,169.520218 236.348495,165.330612 242.413483,164.214951 
	C233.031372,164.214951 223.649261,164.214951 212.911362,164.214951 
	C220.625519,166.487976 222.892914,168.942154 222.956863,176.658524 
	C223.181641,203.782043 223.135040,230.909027 222.982025,258.033508 
	C222.949127,263.865814 221.218857,269.127014 214.395447,270.726318 
	C223.676346,270.726318 232.957260,270.726318 242.238159,270.726318 
	C236.031784,269.359070 234.128143,264.926056 233.692978,259.398804 
	C233.406021,255.754044 233.026367,252.103500 233.002090,248.453461 
	C232.913513,235.136124 232.956772,221.817886 232.950363,207.500000 
M156.066498,166.328003 
	C157.419479,169.618835 159.906799,172.896011 159.946609,176.202652 
	C160.275543,203.512833 160.214630,230.828705 160.113556,258.142273 
	C160.091583,264.083282 158.241226,269.188263 151.442963,270.582611 
	C160.818314,270.582611 170.193680,270.582611 179.569046,270.582611 
	C173.591537,269.513092 171.417206,265.441528 170.974915,260.193298 
	C170.471954,254.225174 170.061386,248.223801 170.107376,242.240707 
	C170.182709,232.441574 170.825790,222.647217 170.924927,212.847763 
	C171.050400,200.445114 170.735687,188.037750 170.883453,175.635681 
	C170.951767,169.902481 173.265472,165.420837 179.624954,164.168762 
	C170.157410,164.168762 160.689880,164.168762 149.981674,164.168762 
	C152.599274,165.045334 153.991653,165.511612 156.066498,166.328003 
M190.370956,207.054382 
	C184.455780,205.487320 178.674500,205.418427 174.393982,207.889374 
	C179.760193,209.956070 185.797516,212.735184 192.108246,214.578217 
	C197.888748,216.266388 203.940811,217.653290 209.917267,217.852737 
	C215.155075,218.027512 218.421509,214.293839 218.741318,209.727448 
	C213.495590,213.772614 208.020752,212.682449 202.533356,210.957306 
	C198.738800,209.764374 194.968643,208.493835 190.370956,207.054382 
z"/>
<path fill="#FAFAFA" opacity="1.000000" stroke="none" 
	d="
M232.950363,208.000000 
	C232.956772,221.817886 232.913513,235.136124 233.002090,248.453461 
	C233.026367,252.103500 233.406021,255.754044 233.692978,259.398804 
	C234.128143,264.926056 236.031784,269.359070 242.238159,270.726318 
	C232.957260,270.726318 223.676346,270.726318 214.395447,270.726318 
	C221.218857,269.127014 222.949127,263.865814 222.982025,258.033508 
	C223.135040,230.909027 223.181641,203.782043 222.956863,176.658524 
	C222.892914,168.942154 220.625519,166.487976 212.911362,164.214951 
	C223.649261,164.214951 233.031372,164.214951 242.413483,164.214951 
	C236.348495,165.330612 233.987900,169.520218 233.775497,175.084290 
	C233.363205,185.884293 233.210571,196.694199 232.950363,208.000000 
z"/>
<path fill="#F7F7F7" opacity="1.000000" stroke="none" 
	d="
M331.755066,250.577881 
	C332.560638,249.321838 333.304901,247.030136 334.181793,246.978241 
	C339.772888,246.647339 345.393188,246.809753 351.202179,247.216400 
	C343.271790,248.714005 342.291473,254.803299 342.092438,260.873383 
	C341.710419,272.521179 341.730469,284.184845 341.733704,295.841888 
	C341.737671,310.330505 341.708374,324.823730 342.071777,339.305481 
	C342.224884,345.407745 342.756775,351.847595 350.703186,353.743835 
	C341.498566,353.743835 332.293945,353.743835 323.089325,353.743835 
	C332.075043,351.335968 331.909912,343.790802 331.968475,336.827332 
	C332.198242,309.515137 332.145172,282.200531 332.471436,254.184387 
	C332.415527,252.513916 332.085297,251.545898 331.755066,250.577881 
z"/>
<path fill="#FCFCFC" opacity="1.000000" stroke="none" 
	d="
M155.725250,166.152939 
	C153.991653,165.511612 152.599274,165.045334 149.981674,164.168762 
	C160.689880,164.168762 170.157410,164.168762 179.624954,164.168762 
	C173.265472,165.420837 170.951767,169.902481 170.883453,175.635681 
	C170.735687,188.037750 171.050400,200.445114 170.924927,212.847763 
	C170.825790,222.647217 170.182709,232.441574 170.107376,242.240707 
	C170.061386,248.223801 170.471954,254.225174 170.974915,260.193298 
	C171.417206,265.441528 173.591537,269.513092 179.569046,270.582611 
	C170.193680,270.582611 160.818314,270.582611 151.442963,270.582611 
	C158.241226,269.188263 160.091583,264.083282 160.113556,258.142273 
	C160.214630,230.828705 160.275543,203.512833 159.946609,176.202652 
	C159.906799,172.896011 157.419479,169.618835 155.725250,166.152939 
z"/>
<path fill="#F7F7F7" opacity="1.000000" stroke="none" 
	d="
M252.066315,278.018341 
	C251.720200,271.376038 251.544571,264.719177 250.979874,258.095490 
	C250.419006,251.516754 248.435455,249.343002 242.314316,246.821640 
	C247.590378,246.821640 252.875717,246.661911 258.134125,246.966568 
	C259.098969,247.022461 260.232819,248.831238 260.819641,250.055679 
	C274.016937,277.591095 287.157257,305.153809 300.254303,332.737091 
	C300.687988,333.650513 300.924957,334.954834 300.622284,335.867554 
	C299.478882,339.315521 298.074554,342.676971 296.274017,347.353577 
	C281.829376,316.395874 267.860046,286.456787 253.890686,256.517670 
	C253.589172,256.544861 253.287659,256.572083 252.986145,256.599274 
	C252.986145,263.423798 252.986145,270.248291 252.717789,277.539459 
	C252.449432,278.006104 252.066315,278.018341 252.066315,278.018341 
z"/>
<path fill="#F6F6F6" opacity="1.000000" stroke="none" 
	d="
M252.819565,294.006134 
	C253.186783,305.785126 253.404633,317.571838 254.011047,329.338501 
	C254.196167,332.930267 255.167068,336.557343 256.271240,340.010590 
	C258.799530,347.917664 261.928558,350.673737 271.609558,353.683777 
	C261.166779,353.683777 251.792908,353.683777 242.419037,353.683777 
	C249.573196,352.132629 251.010178,346.680725 251.149475,340.643799 
	C251.502014,325.365265 251.651779,310.082123 252.166122,294.405731 
	C252.449493,294.010651 252.819565,294.006134 252.819565,294.006134 
z"/>
<path fill="#F3F3F3" opacity="1.000000" stroke="none" 
	d="
M190.779266,207.156174 
	C194.968643,208.493835 198.738800,209.764374 202.533356,210.957306 
	C208.020752,212.682449 213.495590,213.772614 218.741318,209.727448 
	C218.421509,214.293839 215.155075,218.027512 209.917267,217.852737 
	C203.940811,217.653290 197.888748,216.266388 192.108246,214.578217 
	C185.797516,212.735184 179.760193,209.956070 174.393982,207.889374 
	C178.674500,205.418427 184.455780,205.487320 190.779266,207.156174 
z"/>
<path fill="#F6F6F6" opacity="1.000000" stroke="none" 
	d="
M251.966339,278.392334 
	C252.066315,278.018341 252.449432,278.006104 252.641052,278.002380 
	C252.880646,281.362030 252.928650,284.725403 252.712845,288.539368 
	C252.449036,288.989960 252.070938,288.977356 252.070953,288.977356 
	C252.002747,285.573669 251.934540,282.170013 251.966339,278.392334 
z"/>
<path fill="#B7B7B7" opacity="1.000000" stroke="none" 
	d="
M331.761658,250.658478 
	C332.085297,251.545898 332.415527,252.513916 332.502960,253.713287 
	C331.438293,254.304703 330.616455,254.664749 329.116760,255.321777 
	C329.613983,253.992584 329.934174,253.136566 330.790283,251.975388 
	C331.524292,251.377975 331.722412,251.085709 331.920532,250.793457 
	C331.920532,250.793457 331.768250,250.739059 331.761658,250.658478 
z"/>
<path fill="#EFEFEF" opacity="1.000000" stroke="none" 
	d="
M251.971008,289.390167 
	C252.070938,288.977356 252.449036,288.989960 252.638184,288.992004 
	C252.879456,290.389801 252.931580,291.785583 252.901642,293.593750 
	C252.819565,294.006134 252.449493,294.010651 252.264572,294.017853 
	C252.010132,292.617706 251.940613,291.210327 251.971008,289.390167 
z"/>
<path fill="#F7F7F7" opacity="1.000000" stroke="none" 
	d="
M331.574280,250.726257 
	C331.722412,251.085709 331.524292,251.377975 331.104950,251.829865 
	C330.998505,251.546021 331.113281,251.102539 331.574280,250.726257 
z"/>
</svg>